<svg width="914" height="259" viewBox="0 0 914 259" fill="none" xmlns="http://www.w3.org/2000/svg">
<g clip-path="url(#clip0_1219_166)">
<rect width="914" height="259" fill="white"/>
<path d="M911.361 251.117H878.289V228.334C861.754 242.665 840.441 251.117 816.556 251.117C766.214 251.117 722.119 210.696 722.119 156.679C722.119 104.5 764.377 61.875 816.556 61.875C840.441 61.875 861.754 70.694 878.289 85.0249L911.361 61.875V251.117ZM816.556 218.045C850.73 218.045 878.289 190.486 878.289 156.679C878.289 140.144 871.675 124.711 860.284 112.952C849.26 101.928 833.827 94.9463 816.556 94.9463C782.75 94.9463 755.19 122.506 755.19 156.679C755.19 189.751 781.648 218.045 816.556 218.045Z" fill="black"/>
<path d="M759.965 251.117C735.162 251.117 712.805 240.663 696.387 224.082C680.318 207.14 670.537 183.711 670.187 158.478V97.9211H650.625V65.4797H670.187V11.4106H701.627V65.8401H744.943L713.504 97.9211H701.627V157.757C701.627 174.339 711.287 221.379 722.116 232.192C732.596 243.006 745.998 251.117 762.067 251.117H759.965Z" fill="black"/>
<path d="M612.778 251.117H580.801L580.442 156.679C580.442 140.144 574.334 124.711 562.837 112.952C550.621 100.458 535.53 94.9463 520.799 94.9463C489.9 94.9463 460.079 119.566 460.079 156.679V218.413L427.742 230.294L457.683 77.1858L460.079 85.0249C476.247 70.694 497.445 61.875 520.44 61.875C562.118 61.875 585.113 89.8019 585.831 89.8019C602.718 107.072 612.778 130.222 612.778 156.679V251.117Z" fill="black"/>
<path d="M465.591 251.117H432.52V228.334C415.984 242.665 394.672 251.117 370.787 251.117C320.445 251.117 276.35 210.696 276.35 156.679C276.35 104.5 318.607 61.875 370.787 61.875C394.672 61.875 415.984 70.694 432.52 85.0249L465.591 61.875V251.117ZM370.787 218.045C404.96 218.045 432.52 190.486 432.52 156.679C432.52 140.144 425.906 124.711 414.514 112.952C403.491 101.928 388.057 94.9463 370.787 94.9463C336.98 94.9463 309.421 122.506 309.421 156.679C309.421 189.751 335.878 218.045 370.787 218.045Z" fill="black"/>
<path d="M200.652 251.117V61.875H233.052V85.0249C249.251 70.694 270.131 61.875 293.17 61.875L267.938 99.7233C234.819 99.7233 233.052 122.506 233.052 156.679V218.413L200.652 251.117Z" fill="black"/>
<path d="M3 251.117V66.4887C3 32.1902 31.2944 3.72977 66.203 3.72977C80.1665 3.72977 93.0275 3 105.521 3C130.876 3 152.923 5.91903 171.296 24.1629C185.627 38.3931 192.242 55.9072 192.242 73.0565C192.242 109.179 163.947 143.843 121.689 143.843H36.0713V218.278L3 251.117ZM121.689 111.004C146.309 111.004 158.803 92.395 158.803 73.7862C158.803 55.1775 146.309 36.5687 121.689 36.5687H66.203C49.6673 36.5687 36.0713 50.0692 36.0713 66.4887V111.004H121.689Z" fill="#001C63"/>
<path d="M650.627 251.117H621.189V97.9211L650.627 65.4797V251.117ZM650.627 43.8521H621.189V11.4106H650.627V43.8521Z" fill="black"/>
<rect x="621.189" y="11.4106" width="29.4376" height="33.6429" fill="#001C63"/>
</g>
<defs>
<clipPath id="clip0_1219_166">
<rect width="914" height="259" fill="white"/>
</clipPath>
</defs>
</svg>
